<svg width="28" height="29" viewBox="0 0 28 29" fill="none" xmlns="http://www.w3.org/2000/svg">
<path fill-rule="evenodd" clip-rule="evenodd" d="M1.31855 8.71658C0.914354 8.34763 0.891787 7.7273 1.26814 7.33106L7.40124 0.87381C7.77759 0.477561 8.41036 0.455438 8.81455 0.824395C9.21875 1.19335 9.24131 1.81368 8.86496 2.20992L4.31072 7.00487C12.939 7.20996 18.5699 10.3157 22.0695 14.3466C25.8402 18.6897 27.0439 23.9994 26.9988 27.5932C26.992 28.1346 26.5388 28.5681 25.9866 28.5614C25.4343 28.5548 24.9921 28.1105 24.9989 27.5691C25.0393 24.353 23.9455 19.5324 20.5465 15.6174C17.4917 12.0989 12.4976 9.22195 4.53356 8.97228L9.2682 13.2942C9.6724 13.6631 9.69496 14.2834 9.31861 14.6797C8.94225 15.0759 8.30949 15.0981 7.90529 14.7291L1.31855 8.71658Z" fill="#8C8775"/>
</svg>
