<svg width="16" height="15" viewBox="0 0 16 15" fill="none" xmlns="http://www.w3.org/2000/svg">
<path fill-rule="evenodd" clip-rule="evenodd" d="M11.6592 12.9764C10.7706 13.5048 9.8186 14.071 8.9802 14.5685C8.84173 14.6507 8.49327 14.8334 8.00113 14.8334C7.50893 14.8334 7.1788 14.659 7.02333 14.5685C5.02043 13.402 2.40702 11.8395 1.51763 11.3002C0.628227 10.7608 0 10.3204 0 9.30289C0.00339052 8.67422 0.00688827 2.14785 0.00688827 1.25823C0.00688827 0.368606 0.82246 -0.166816 1.80155 0.406063C2.78063 0.97894 8.0004 4.08791 8.0004 4.08791C8.0004 4.08791 13.3293 0.914374 14.1995 0.406063C15.1995 -0.178061 15.9941 0.385297 15.9941 1.25113C15.9941 1.66905 15.9954 3.32627 15.9969 5.04179C15.9984 6.88049 16 8.78609 16 9.30462C16 10.3068 15.4054 10.7556 14.4822 11.3002C13.951 11.6135 12.8633 12.2604 11.6592 12.9764Z" fill="url(#paint0_linear_103_1192)"/>
<defs>
<linearGradient id="paint0_linear_103_1192" x1="16" y1="6.12461" x2="1.47205e-06" y2="6.12564" gradientUnits="userSpaceOnUse">
<stop stop-color="#3E99ED"/>
<stop offset="1" stop-color="#72CFFF"/>
</linearGradient>
</defs>
</svg>
