<svg width="40" height="40" viewBox="0 0 40 40" fill="none" xmlns="http://www.w3.org/2000/svg">
<path fill-rule="evenodd" clip-rule="evenodd" d="M16.2857 7C12.8931 7 10.1429 9.75026 10.1429 13.1429C10.1429 15.2808 11.2342 17.1642 12.8949 18.266C13.5712 18.7146 14.3406 19.0325 15.1678 19.1845C15.5296 19.2509 15.9031 19.2857 16.2857 19.2857C16.6683 19.2857 17.0418 19.2509 17.4037 19.1845C18.2309 19.0325 19.0003 18.7146 19.6766 18.266C21.3372 17.1643 22.4286 15.2808 22.4286 13.1429C22.4286 9.75026 19.6783 7 16.2857 7ZM21.0791 19.726C23.1075 18.2467 24.4286 15.8493 24.4286 13.1429C24.4286 8.64569 20.7829 5 16.2857 5C11.7885 5 8.14286 8.64569 8.14286 13.1429C8.14286 15.8493 9.46396 18.2467 11.4924 19.7261C5.45893 21.2783 1 26.7536 1 33.2727C1 34.5423 2.02916 35.5714 3.2987 35.5714H29.2727C30.5423 35.5714 31.5714 34.5423 31.5714 33.2727C31.5714 26.7536 27.1125 21.2783 21.0791 19.726ZM14.987 21.2857C14.0627 21.2857 13.1641 21.3902 12.3017 21.5874C6.97402 22.8063 3 27.5766 3 33.2727C3 33.4377 3.13373 33.5714 3.2987 33.5714H29.2727C29.4377 33.5714 29.5714 33.4377 29.5714 33.2727C29.5714 27.5766 25.5974 22.8062 20.2697 21.5874C19.4073 21.3901 18.5087 21.2857 17.5844 21.2857H14.987Z" fill="#272727"/>
<path fill-rule="evenodd" clip-rule="evenodd" d="M23.7143 7C23.2922 7 22.8811 7.04241 22.4847 7.12289C21.9434 7.23275 21.4156 6.88305 21.3057 6.3418C21.1959 5.80055 21.5456 5.27272 22.0868 5.16286C22.6135 5.05595 23.1579 5 23.7143 5C28.2114 5 31.8571 8.64569 31.8571 13.1429C31.8571 15.8493 30.536 18.2467 28.5076 19.726C34.5411 21.2783 39 26.7536 39 33.2727C39 34.5423 37.9709 35.5714 36.7013 35.5714H32.5714C32.0191 35.5714 31.5714 35.1237 31.5714 34.5714C31.5714 34.0192 32.0191 33.5714 32.5714 33.5714H36.7013C36.8663 33.5714 37 33.4377 37 33.2727C37 27.5766 33.026 22.8062 27.6983 21.5874C26.8359 21.3901 25.9373 21.2857 25.013 21.2857H22.4156C22.1715 21.2857 21.9478 21.1983 21.7742 21.053C21.4864 20.9826 21.2046 20.8969 20.9297 20.7969C20.4107 20.608 20.1431 20.0342 20.332 19.5152C20.5208 18.9962 21.0947 18.7286 21.6137 18.9175C21.9298 19.0325 22.2582 19.1223 22.5963 19.1845C22.9582 19.2509 23.3317 19.2857 23.7143 19.2857C24.0969 19.2857 24.4704 19.2509 24.8322 19.1845C25.6595 19.0325 26.4289 18.7146 27.1052 18.266C28.7658 17.1642 29.8571 15.2808 29.8571 13.1429C29.8571 9.75026 27.1069 7 23.7143 7Z" fill="#272727"/>
</svg>
