<svg width="28" height="28" viewBox="0 0 28 28" fill="none" xmlns="http://www.w3.org/2000/svg">
<path fill-rule="evenodd" clip-rule="evenodd" d="M26.6815 8.15506C27.0856 7.7861 27.1082 7.16578 26.7319 6.76953L20.5988 0.312287C20.2224 -0.0839622 19.5896 -0.106086 19.1854 0.262872C18.7813 0.63183 18.7587 1.25215 19.135 1.6484L23.6893 6.44334C15.061 6.64844 9.43008 9.75423 5.93051 13.785C2.1598 18.1281 0.956141 23.4378 1.00121 27.0317C1.008 27.5731 1.46119 28.0066 2.01343 27.9999C2.56567 27.9933 3.00785 27.549 3.00106 27.0076C2.96073 23.7914 4.05447 18.9709 7.45353 15.0559C10.5083 11.5374 15.5024 8.66042 23.4664 8.41076L18.7318 12.7326C18.3276 13.1016 18.305 13.7219 18.6814 14.1182C19.0578 14.5144 19.6905 14.5365 20.0947 14.1676L26.6815 8.15506Z" fill="#8C8775"/>
</svg>
