<svg width="40" height="40" viewBox="0 0 40 40" fill="none" xmlns="http://www.w3.org/2000/svg">
<path fill-rule="evenodd" clip-rule="evenodd" d="M6 36.8186L16.7654 31.4359L27.5308 36.8186V21.9234H34V9.30967C34 6.97096 32.1041 5.07507 29.7654 5.07507H10.2346C7.89589 5.07507 6 6.97096 6 9.30967V36.8186ZM29.7654 7.07507C30.9995 7.07507 32 8.07553 32 9.30967V19.9234H27.5308V9.30967C27.5308 8.07553 28.5313 7.07507 29.7654 7.07507ZM25.5308 9.30967C25.5308 8.48944 25.764 7.72368 26.1677 7.07507H10.2346C9.00046 7.07507 8 8.07553 8 9.30967V33.5825L16.7654 29.1998L25.5308 33.5825V9.30967Z" fill="#272727"/>
</svg>
