<svg width="40" height="40" viewBox="0 0 40 40" fill="none" xmlns="http://www.w3.org/2000/svg">
<path d="M5.54811 8.27743C8.64508 6.7176 11.2579 5.99024 13.4929 6.0001C15.5485 6.00916 17.3383 6.64128 18.9557 7.92349L18.9557 19.6773C18.9557 20.2296 19.4034 20.6773 19.9557 20.6773C20.508 20.6773 20.9557 20.2296 20.9557 19.6773V7.92359C22.5736 6.64137 24.3634 6.00955 26.419 6.00076C28.654 5.99121 31.2669 6.7189 34.3646 8.2788L34.3679 8.28043C34.6937 8.443 34.9113 8.79384 34.9113 9.16205V22.977C34.9113 23.5293 35.3591 23.977 35.9113 23.977C36.4636 23.977 36.9113 23.5293 36.9113 22.977V9.16205C36.9113 8.03911 36.2682 6.99445 35.2628 6.49182C32.0081 4.85305 29.0749 3.98939 26.4105 4.00078C23.9955 4.0111 21.8544 4.74074 19.9558 6.16905C18.0576 4.74069 15.9166 4.01077 13.5017 4.00012C10.8372 3.98837 7.90387 4.85171 4.64962 6.49062C3.64376 6.99424 3 8.03836 3 9.16205V30.5825C3 31.4953 3.40955 32.3514 4.12248 32.9233C4.65848 33.3537 5.31571 33.5823 5.99446 33.5823C6.21982 33.5823 6.43674 33.556 6.64105 33.514L6.65538 33.5111L6.66962 33.5077C10.9477 32.4979 14.3044 32.366 16.986 33.0132C17.5228 33.1428 18.0631 32.8127 18.1927 32.2758C18.3223 31.7389 17.9921 31.1987 17.4552 31.0691C14.3566 30.3211 10.6607 30.5123 6.22615 31.5574C6.13792 31.5748 6.06113 31.5823 5.99446 31.5823C5.76906 31.5823 5.55404 31.5078 5.3747 31.3638C5.13599 31.1724 5 30.8901 5 30.5825V9.16205C5 8.79442 5.21723 8.44288 5.5455 8.27875L5.54811 8.27743Z" fill="#272727"/>
<path d="M31.597 31.211C31.2064 30.8205 30.5733 30.8205 30.1828 31.211C29.7922 31.6015 29.7922 32.2347 30.1828 32.6252L34.9965 37.439C35.3871 37.8295 36.0202 37.8295 36.4108 37.439C36.8013 37.0485 36.8013 36.4153 36.4108 36.0248L31.597 31.211Z" fill="#272727"/>
<path fill-rule="evenodd" clip-rule="evenodd" d="M26.6039 34.2789C22.9381 34.2789 19.9557 31.2966 19.9557 27.6307C19.9557 23.9649 22.9381 20.9825 26.6039 20.9825C30.2697 20.9825 33.2521 23.9649 33.2521 27.6307C33.2521 31.2966 30.2697 34.2789 26.6039 34.2789ZM26.6039 32.2789C24.0426 32.2789 21.9557 30.192 21.9557 27.6307C21.9557 25.0695 24.0426 22.9825 26.6039 22.9825C29.1651 22.9825 31.2521 25.0695 31.2521 27.6307C31.2521 30.192 29.1651 32.2789 26.6039 32.2789Z" fill="#272727"/>
</svg>
